<svg width="69" height="30" viewBox="0 0 69 30" fill="none" xmlns="http://www.w3.org/2000/svg">
<path d="M64.25 11C64.675 13.125 66.375 14.825 68.5 15.25C66.375 15.675 64.675 17.375 64.25 19.5C63.825 17.375 62.125 15.675 60 15.25C62.125 14.825 63.825 13.125 64.25 11Z" fill="#333333"/>
<path d="M45 6C45.9 10.5 49.5 14.1 54 15C49.5 15.9 45.9 19.5 45 24C44.1 19.5 40.5 15.9 36 15C40.5 14.1 44.1 10.5 45 6Z" fill="#333333"/>
<path d="M15 0C16.5 7.5 22.5 13.5 30 15C22.5 16.5 16.5 22.5 15 30C13.5 22.5 7.5 16.5 0 15C7.5 13.5 13.5 7.5 15 0Z" fill="#666666"/>
</svg>
